<?xml version="1.0" standalone="no"?>
<!DOCTYPE svg PUBLIC "-//W3C//DTD SVG 20010904//EN"
 "http://www.w3.org/TR/2001/REC-SVG-20010904/DTD/svg10.dtd">
<svg version="1.0" xmlns="http://www.w3.org/2000/svg"
 width="1762.000000pt" height="1668.000000pt" viewBox="0 0 1762.000000 1668.000000"
 preserveAspectRatio="xMidYMid meet">

<g transform="translate(0.000000,1668.000000) scale(0.100000,-0.100000)"
fill="#000000" stroke="none">
<path d="M0 8340 l0 -8340 8810 0 8810 0 0 8340 0 8340 -8810 0 -8810 0 0
-8340z m9250 7385 c252 -31 311 -76 264 -206 -34 -98 -54 -223 -54 -354 -1
-375 -56 -1008 -133 -1535 -17 -114 -20 -167 -14 -199 11 -56 -3 -131 -39
-212 -42 -93 -50 -94 -208 -32 -178 69 -233 100 -261 147 -29 49 -31 81 -10
128 17 40 73 577 100 963 28 407 42 1083 25 1152 -22 84 -2 117 88 149 47 17
99 17 242 -1z m-1578 -105 c177 -25 357 -65 424 -95 60 -27 58 -22 74 -170 46
-417 234 -1417 332 -1758 l39 -138 -20 -101 c-12 -56 -27 -108 -33 -116 -10
-11 -31 -13 -98 -9 -147 8 -350 94 -393 166 -12 19 -28 91 -43 185 -25 164
-51 283 -66 302 -15 20 -158 -25 -383 -121 -138 -59 -218 -101 -243 -128 -23
-25 -95 -266 -117 -395 -8 -45 -19 -91 -25 -102 -16 -31 -52 -50 -91 -50 -91
0 -365 69 -386 97 -27 35 -7 178 57 419 35 131 36 150 10 164 -29 16 -52 66
-48 108 3 34 10 42 93 100 86 60 91 66 108 120 10 31 48 152 83 267 36 116
101 322 145 458 44 137 100 318 124 402 43 148 44 157 38 252 -7 114 1 138 50
152 54 16 225 12 369 -9z m-1419 -165 c110 -29 130 -61 98 -165 -37 -122 -44
-204 -37 -400 20 -568 68 -1083 142 -1515 21 -120 31 -159 54 -195 22 -34 31
-66 40 -132 13 -109 0 -175 -37 -189 -14 -5 -102 -10 -196 -12 l-172 -2 -42
27 c-55 36 -66 58 -74 143 -3 39 -27 158 -52 265 -113 478 -173 900 -217 1525
-31 442 -31 448 -46 484 -29 69 -8 113 70 151 84 40 342 48 469 15z m3811
-395 c126 -36 150 -44 197 -67 50 -24 89 -65 89 -94 0 -10 -13 -55 -30 -101
-30 -82 -37 -123 -22 -132 5 -3 23 25 41 62 67 137 166 243 254 271 78 26 252
-51 409 -181 76 -63 86 -87 113 -260 3 -21 9 -38 13 -38 4 0 39 51 79 113 100
156 157 214 224 230 57 14 189 -53 324 -163 87 -71 130 -129 145 -193 17 -80
22 -266 11 -437 -25 -390 -91 -734 -210 -1090 -27 -80 -54 -168 -59 -195 -24
-112 -77 -195 -137 -215 -30 -10 -42 -8 -87 13 -100 45 -290 216 -300 269 -8
43 12 83 78 158 36 41 74 93 84 115 25 53 92 313 129 501 56 279 108 711 99
824 -3 39 -6 45 -23 42 -57 -10 -255 -273 -335 -445 -52 -113 -63 -149 -100
-327 -36 -182 -81 -373 -120 -520 -15 -58 -32 -131 -38 -163 -19 -97 -78 -167
-142 -167 -62 1 -274 117 -351 194 -58 57 -53 85 36 201 67 88 79 126 139 422
65 319 133 934 107 972 -8 12 -13 12 -35 -3 -61 -39 -273 -332 -355 -488 -41
-79 -53 -125 -102 -398 -17 -96 -41 -222 -54 -279 -18 -78 -22 -120 -18 -172
5 -61 3 -74 -23 -125 -39 -77 -86 -109 -151 -101 -55 6 -298 124 -333 162 -32
34 -26 115 9 145 54 47 60 62 95 270 60 347 103 711 126 1055 9 147 8 165 -9
214 -22 63 -19 83 21 116 38 32 111 34 212 5z m-5375 -360 c120 -24 249 -43
332 -49 152 -10 191 -22 236 -74 43 -49 69 -125 94 -274 12 -70 32 -156 45
-191 29 -76 30 -112 4 -145 -31 -40 -79 -50 -199 -45 -121 6 -221 31 -250 62
-20 21 -53 125 -91 284 -35 145 -69 194 -110 157 -71 -64 -66 -356 9 -520 44
-94 66 -109 232 -156 79 -22 184 -51 233 -65 180 -50 283 -125 349 -253 88
-169 128 -364 107 -522 -21 -165 -71 -290 -165 -414 -57 -74 -106 -115 -191
-157 -28 -14 -75 -42 -104 -62 -56 -38 -110 -47 -153 -25 -39 21 -120 90 -190
163 -86 89 -254 285 -288 336 -59 87 -42 200 39 270 76 65 311 170 349 156 8
-3 39 -59 69 -123 112 -241 145 -292 178 -280 75 29 -56 485 -173 603 -50 50
-76 61 -194 84 -345 67 -492 182 -620 487 -108 256 -123 446 -47 600 56 114
162 193 259 193 25 0 133 -18 240 -40z m8068 -283 c134 -35 337 -242 451 -461
l37 -71 3 -200 c3 -166 0 -221 -17 -325 -28 -173 -82 -311 -140 -364 -20 -18
-26 -18 -94 -6 -109 19 -300 76 -404 120 -51 22 -95 40 -98 40 -16 0 -49 -114
-95 -334 -45 -207 -52 -260 -40 -292 10 -25 13 -26 56 -20 100 13 228 116 321
257 35 53 70 103 79 110 26 22 61 -6 117 -93 62 -98 84 -143 97 -204 13 -59
-7 -99 -91 -179 -196 -187 -488 -361 -625 -373 -50 -4 -51 -3 -91 42 -50 57
-162 283 -199 401 -26 84 -26 91 -21 268 8 262 58 577 143 907 96 369 252 659
402 747 73 43 128 51 209 30z m-3943 -1588 c22 -6 58 -8 80 -5 72 11 612 -66
921 -130 187 -39 377 -89 531 -139 78 -25 149 -45 158 -45 37 0 376 -140 551
-227 294 -148 446 -239 607 -365 93 -73 148 -113 178 -129 43 -24 178 -128
335 -257 256 -211 530 -483 765 -762 30 -36 60 -69 66 -75 17 -16 114 -142
114 -149 0 -6 103 -149 137 -190 115 -141 443 -728 551 -986 101 -244 211
-562 276 -800 78 -285 119 -519 169 -965 16 -148 16 -882 0 -1030 -73 -660
-146 -974 -352 -1527 -98 -263 -139 -357 -238 -547 -176 -337 -300 -544 -428
-716 -28 -38 -78 -109 -111 -157 -106 -156 -389 -474 -615 -693 -233 -225
-591 -517 -739 -605 -24 -14 -48 -30 -55 -37 -24 -23 -233 -152 -440 -271
-164 -94 -731 -346 -849 -376 -30 -8 -96 -29 -148 -46 -497 -165 -1061 -262
-1623 -277 -669 -17 -1282 82 -2050 334 -252 82 -858 371 -1033 492 -15 10
-92 60 -172 112 -586 377 -1119 886 -1525 1454 -44 61 -82 112 -85 115 -4 3
-9 12 -12 20 -3 8 -36 63 -74 122 -38 59 -90 140 -115 180 -47 76 -169 293
-169 302 0 3 -29 65 -64 138 -123 255 -249 563 -285 693 -6 22 -35 123 -65
225 -163 559 -236 1121 -223 1700 13 525 80 960 229 1475 22 77 42 151 44 164
7 33 110 321 138 384 13 28 45 102 71 162 76 176 235 492 300 595 217 347 415
632 512 735 15 17 44 51 62 75 173 223 590 621 891 849 240 182 735 501 778
501 6 0 32 13 59 30 76 47 485 233 623 283 591 214 1120 325 1700 357 107 6
211 15 230 20 43 12 341 3 394 -11z"/>
<path d="M7667 14864 c-12 -13 -44 -86 -102 -239 -112 -293 -151 -425 -128
-425 14 0 319 103 327 111 5 4 0 47 -13 101 -12 51 -31 163 -42 248 -24 180
-31 215 -42 204z"/>
<path d="M12794 13928 c-82 -89 -158 -214 -208 -345 -20 -50 -33 -99 -30 -107
13 -33 161 -51 203 -24 40 25 79 165 102 369 7 58 9 113 6 123 -10 26 -40 19
-73 -16z"/>
<path d="M8425 12684 c-642 -41 -1254 -142 -1765 -290 -250 -73 -268 -79 -347
-115 -37 -17 -117 -54 -178 -81 -138 -62 -277 -133 -425 -216 -100 -57 -147
-86 -260 -162 -14 -9 -41 -25 -60 -35 -19 -10 -37 -21 -40 -24 -3 -4 -29 -22
-58 -40 -30 -19 -59 -39 -65 -46 -7 -6 -50 -40 -97 -75 -349 -263 -620 -516
-917 -855 -70 -80 -322 -406 -358 -463 -5 -9 -17 -24 -26 -34 -9 -11 -25 -36
-35 -56 -10 -20 -35 -62 -55 -92 -87 -133 -112 -175 -195 -325 -48 -87 -107
-202 -130 -254 -23 -53 -65 -148 -94 -211 -221 -492 -374 -1094 -437 -1720
-21 -214 -24 -736 -4 -940 26 -285 74 -578 131 -815 17 -71 40 -169 50 -217
39 -181 183 -588 281 -795 28 -60 60 -130 71 -158 41 -105 204 -404 303 -556
35 -53 66 -105 69 -116 3 -11 14 -28 24 -39 9 -10 23 -31 30 -45 8 -14 23 -38
35 -52 12 -15 45 -57 72 -94 196 -265 340 -437 545 -647 106 -108 325 -313
395 -369 11 -8 47 -37 80 -64 60 -49 198 -157 308 -239 32 -24 100 -68 150
-99 51 -31 128 -79 171 -107 158 -101 342 -200 536 -288 384 -175 626 -262
978 -351 578 -146 1010 -198 1552 -186 452 10 853 66 1260 174 74 20 162 42
195 49 99 22 398 127 585 207 370 159 548 251 898 471 146 91 376 254 442 313
8 7 42 35 74 61 180 143 528 481 669 647 38 44 86 101 108 126 67 78 209 262
226 294 9 17 19 32 22 35 12 9 117 163 197 290 106 167 99 156 137 235 19 39
59 115 90 170 61 111 191 393 242 525 96 252 206 618 264 883 85 385 120 682
128 1092 13 675 -83 1296 -298 1915 -28 80 -55 163 -60 185 -6 21 -16 53 -24
70 -8 16 -43 99 -79 183 -36 84 -108 234 -160 334 -53 99 -96 186 -96 193 0 7
-7 18 -15 25 -8 7 -15 16 -15 20 0 12 -146 242 -248 390 -92 135 -254 349
-294 390 -25 26 -78 87 -157 182 -98 117 -502 499 -606 573 -38 27 -88 67
-100 81 -18 21 -215 163 -330 239 -168 110 -478 295 -575 342 -337 164 -678
303 -920 376 -334 101 -559 142 -984 183 -153 14 -682 26 -811 18z m2904
-1141 c56 -43 71 -63 114 -153 122 -253 224 -686 248 -1045 28 -433 20 -1115
-17 -1490 -37 -367 -112 -785 -202 -1122 l-30 -111 51 -119 50 -120 48 18 c56
21 351 91 484 114 205 36 325 29 325 -18 -1 -72 -51 -103 -180 -111 -198 -13
-616 -94 -626 -121 -3 -7 9 -58 25 -114 39 -129 71 -265 71 -297 0 -20 4 -24
19 -19 32 10 183 25 256 25 91 0 379 -52 447 -82 29 -12 68 -33 87 -45 19 -13
38 -23 42 -23 16 0 10 -45 -11 -88 -25 -52 -39 -53 -122 -8 -123 67 -365 104
-626 98 -65 -2 -73 -4 -68 -19 9 -30 25 -201 32 -335 l7 -128 64 0 c219 0 622
-91 694 -156 32 -28 24 -69 -22 -119 -23 -25 -50 -45 -61 -45 -10 0 -49 15
-86 34 -88 44 -295 111 -402 131 -197 35 -190 35 -190 10 0 -122 -48 -518 -81
-669 -10 -49 -18 -90 -17 -91 12 -9 194 -47 283 -59 124 -17 371 -79 427 -107
49 -25 183 -133 208 -169 59 -82 -13 -225 -149 -294 -75 -39 -218 -66 -352
-67 l-128 -1 -76 -61 -77 -62 39 -17 c31 -13 87 -18 293 -23 475 -12 711 -61
833 -173 29 -28 36 -76 17 -113 -15 -28 -94 -64 -180 -83 -211 -45 -384 -55
-625 -34 -71 6 -200 12 -285 13 -125 2 -177 7 -265 28 -181 42 -334 59 -540
60 -167 2 -209 -1 -345 -25 -144 -26 -293 -44 -565 -69 -60 -5 -177 -21 -260
-35 -216 -36 -383 -54 -521 -54 -126 0 -266 20 -315 46 -34 17 -71 65 -93 118
-26 63 -21 85 31 133 l46 44 -99 -8 c-54 -4 -391 -8 -749 -8 -664 1 -834 7
-1305 51 -415 38 -902 109 -1275 187 -41 8 -170 12 -411 12 l-350 0 -50 30
c-27 17 -58 45 -69 62 -11 16 -35 40 -54 53 -32 21 -50 23 -280 32 -711 27
-719 27 -767 58 -27 17 -54 62 -54 90 0 12 15 37 33 55 55 55 186 86 417 100
58 4 152 13 210 20 58 8 209 17 335 20 261 7 360 19 350 43 -27 70 -78 277
-104 417 -43 240 -63 411 -62 553 1 122 0 122 -23 122 -13 0 -42 -7 -65 -15
-22 -8 -41 -12 -41 -10 0 4 -72 -26 -175 -74 -72 -33 -145 -58 -201 -67 -50
-8 -76 13 -95 75 -16 55 -1 71 105 112 44 17 101 41 126 54 80 41 119 55 213
76 97 21 121 35 131 75 4 13 12 24 20 24 13 0 26 60 26 120 0 41 -33 51 -147
45 -53 -3 -99 -7 -102 -9 -3 -2 -31 -7 -61 -11 -30 -4 -58 -9 -61 -11 -4 -2
-22 -6 -40 -9 -19 -2 -61 -12 -94 -21 -33 -9 -92 -17 -132 -18 -62 -1 -75 2
-96 22 -14 13 -32 47 -42 77 -25 82 -10 99 102 110 21 2 61 9 88 15 59 12 156
30 205 37 19 3 105 6 190 8 152 2 195 9 217 36 10 12 76 241 70 244 -32 13
-80 25 -105 25 -17 0 -41 4 -54 10 -13 5 -63 14 -113 20 -49 5 -137 16 -195
24 -58 8 -139 15 -181 15 -87 1 -93 5 -128 88 -28 67 -18 86 56 103 58 14 221
4 398 -25 50 -8 135 -22 190 -31 55 -9 121 -22 146 -29 l47 -13 17 46 c29 77
99 240 147 342 37 78 46 109 51 170 13 187 97 462 229 750 121 264 296 598
366 697 34 47 160 250 178 285 9 18 20 35 23 38 4 3 49 66 101 140 123 177
210 294 221 298 5 2 9 8 9 14 0 11 160 218 198 257 13 13 77 87 142 165 131
156 461 496 555 571 55 44 82 66 183 151 90 75 285 194 319 194 23 0 48 -24
39 -38 -3 -6 8 -15 24 -22 39 -16 61 -53 105 -180 57 -165 95 -350 131 -635
31 -251 30 -754 -2 -882 l-6 -22 180 6 c195 7 492 -8 661 -33 57 -9 107 -12
110 -7 3 5 35 51 70 103 331 488 893 1055 1421 1432 321 229 425 287 710 394
127 48 165 53 199 27z"/>
<path d="M6310 8529 c-167 -45 -226 -101 -448 -426 -71 -105 -164 -296 -206
-423 -60 -180 -68 -235 -73 -471 -5 -199 -3 -224 17 -305 53 -211 185 -382
321 -414 137 -33 309 51 459 224 201 231 369 599 429 941 34 188 32 454 -4
590 -66 251 -242 351 -495 284z"/>
<path d="M8605 8530 c-86 -24 -109 -35 -168 -79 -28 -21 -66 -46 -83 -54 -17
-9 -43 -35 -59 -59 -16 -24 -43 -59 -61 -78 -62 -68 -118 -207 -159 -397 -13
-65 -36 -159 -49 -209 -44 -165 -59 -305 -53 -507 4 -156 9 -197 32 -287 15
-57 40 -133 56 -168 16 -34 29 -66 29 -71 0 -22 102 -161 151 -205 73 -66 126
-88 225 -94 117 -7 222 27 292 95 7 7 17 13 21 13 13 0 142 163 199 250 125
193 214 450 258 750 21 144 21 424 -1 558 -49 302 -154 474 -331 538 -81 29
-204 31 -299 4z"/>
<path d="M3746 4881 c-22 -8 -15 -15 27 -25 29 -7 35 2 15 22 -13 13 -15 14
-42 3z"/>
<path d="M12896 4214 c-9 -24 -7 -28 9 -14 17 14 20 30 6 30 -5 0 -12 -7 -15
-16z"/>
</g>
</svg>
